<svg xmlns="http://www.w3.org/2000/svg" width="100" height="12.82" viewBox="0 0 100 12.82"><path fill="#fff" d="M67.278 2.483c.006.295.058.27.18-.014h.001l.384-.884c.065-.148.096-.234.096-.407v-1.178h-10.643c-1.203 0-2.179.976-2.179 2.179v7.711c0 .14.027.16.115.086l.388-.326c.06-.052.14-.148.139-.238-.035-1.71-.071-3.809-.071-5.23 0-3.029 2.108-3.621 5.226-3.621h6.32l.044 1.922zm.537 3.669l-.395.811c-.048.098-.063.174-.062.289v.001c.006.502.008.974.008 1.386 0 3.029-2.106 3.622-5.225 3.622h-5.785c-.214 0-.306.04-.415.134l-.34.293c-.108.093-.109.125-.003.133h10.16c1.202 0 2.18-.976 2.18-2.18v-4.388c0-.208-.019-.315-.123-.101z"/><path fill="#41C3D8" d="M68.245 2.006c-1.811 4.593-3.605 7.781-5.009 5.642 0 0 .838-1.052 1.373-2.102 2.149-4.219-1.365-5.456-2.569-1.806-.822 2.492-.133 4.126-.133 4.126-1.997 2.285-2.912 1.396-3.275.688 0 0 .84-1.053 1.375-2.103 2.149-4.22-1.367-5.455-2.569-1.804-.823 2.491-.132 4.125-.132 4.125-.214.267-1.615 1.751-2.486 2.257-.22.126-.276 1.555-.018 1.406 1.032-.604 2.876-2.796 2.876-2.796 1.156 1.766 2.981.86 4.643-.951 2.205 2.552 4.314-1.042 6.052-5.093.158-.366.27-2.599-.128-1.589zm-10.022 3.083c.636-2.396 2.36-1.616 1.239.743-.572 1.214-1.192 1.897-1.192 1.897-.172-.436-.29-1.728-.047-2.64zm4.602-.907c.636-2.396 2.361-1.616 1.24.743-.575 1.213-1.193 1.896-1.193 1.896-.172-.434-.289-1.726-.047-2.639z"/><path d="M3.551 2.674c.837 0 2.652.307 2.652 1.38v.847h-.917v-.541c0-.611-1.056-.838-1.695-.838-1.489 0-2.583 1.094-2.583 2.672 0 1.646 1.124 2.818 2.642 2.818.493 0 1.735-.177 1.735-.818v-.542h.917v.848c0 1.024-1.745 1.37-2.711 1.37-2.09 0-3.598-1.606-3.598-3.638 0-2.04 1.547-3.558 3.558-3.558zm3.789 6.338h.75v-3.292c0-.148-.08-.217-.217-.217h-.622v-.74h1.124c.434 0 .64.178.64.583v.314l-.019.345h.019c.228-.729.809-1.301 1.578-1.301l.247.021v.945l-.276-.029c-1.065 0-1.518 1.074-1.518 2.05v1.321h.74v.74h-2.446v-.74zm6.578-4.366c1.419 0 2.159 1.044 2.159 2.335l-.029.365h-3.648c.059 1.104.838 1.696 1.725 1.696.868 0 1.488-.562 1.488-.562l.395.7s-.75.69-1.942.69c-1.568 0-2.642-1.133-2.642-2.612 0-1.588 1.074-2.612 2.494-2.612zm1.173 2.089c-.029-.877-.562-1.331-1.193-1.331-.729 0-1.321.493-1.459 1.331h2.652zm4.636-.048h.315v-.188c0-.788-.452-1.064-1.064-1.064-.788 0-1.428.483-1.428.483l-.385-.681s.729-.59 1.893-.59c1.271 0 1.943.659 1.943 1.921v2.228c0 .148.079.216.216.216h.502v.74h-.995c-.444 0-.621-.217-.621-.542v-.068c0-.198.039-.326.039-.326h-.02s-.433 1.055-1.646 1.055c-.828 0-1.656-.483-1.656-1.507-.002-1.57 2.079-1.677 2.907-1.677zm-1.045 2.444c.848 0 1.37-.868 1.37-1.617v-.207h-.246c-.455 0-2.021.02-2.021.976 0 .444.325.848.897.848zm4.232-3.628h-.838v-.74h.857v-1.368h.937v1.369h1.193v.74h-1.193v2.336c0 1.016.69 1.144 1.065 1.144l.227-.01v.799l-.345.02c-.631 0-1.902-.198-1.902-1.863v-2.427zm5.433-.857c1.42 0 2.16 1.044 2.16 2.335l-.03.365h-3.647c.059 1.104.837 1.696 1.725 1.696.868 0 1.489-.562 1.489-.562l.394.7s-.749.69-1.942.69c-1.568 0-2.642-1.133-2.642-2.612 0-1.588 1.073-2.612 2.493-2.612zm1.173 2.089c-.029-.877-.562-1.331-1.193-1.331-.729 0-1.319.493-1.458 1.331h2.651zm4.084-2.089c1.134 0 1.538.837 1.538.837h.02s-.029-.158-.029-.375v-1.576h-.829v-.74h1.785v6.004c0 .148.078.216.217.216h.502v.74h-.995c-.444 0-.622-.217-.622-.542v-.068l.029-.267h-.019s-.405.996-1.687.996c-1.339 0-2.178-1.064-2.178-2.612.001-1.589.927-2.613 2.268-2.613zm.119 4.396c.739 0 1.439-.532 1.439-1.775 0-.917-.463-1.784-1.41-1.784-.798 0-1.439.642-1.439 1.775 0 1.084.581 1.784 1.41 1.784zm6.708-5.51h-.838v-.74h1.793v2.307c0 .237-.029.414-.029.414h.02s.443-.867 1.607-.867c1.351 0 2.199 1.064 2.199 2.612 0 1.586-.957 2.612-2.278 2.612-1.153 0-1.578-.907-1.578-.907h-.02s.03.179.03.395v.394h-.907v-6.22zm2.346 5.51c.778 0 1.429-.642 1.429-1.775 0-1.084-.582-1.784-1.409-1.784-.739 0-1.439.522-1.439 1.794-.001.889.462 1.765 1.419 1.765zm4.163 1.982c.424 0 .749-.296.917-.69l.207-.493-1.745-4.337h-.631v-.74h2.277v.74h-.661l1.114 2.967c.069.217.089.434.089.434h.029s.04-.217.118-.434l1.105-2.967h-.641v-.74h2.208v.74h-.622l-1.971 5.038c-.335.848-.985 1.281-1.754 1.281-.641 0-1.075-.316-1.075-.316l.325-.72s.286.237.711.237zM71.811 8.939h.867l.442-5.432h-.886v-.758h1.972l1.784 4.238c.108.286.158.502.158.502h.02s.049-.217.157-.502l1.785-4.238h1.971v.759h-.889l.445 5.432h.867v.769h-2.681v-.77h.838l-.316-4.16c-.01-.217.029-.572.029-.572h-.029s-.078.335-.157.532l-1.598 3.657h-.865l-1.599-3.657c-.078-.197-.157-.532-.157-.532h-.03s.04.355.03.572l-.316 4.16h.838v.769h-2.681v-.769zm11.862-4.338c1.422 0 2.159 1.045 2.159 2.337l-.028.365h-3.646c.059 1.104.838 1.695 1.724 1.695.869 0 1.489-.562 1.489-.562l.394.701s-.748.69-1.942.69c-1.566 0-2.641-1.135-2.641-2.613-.001-1.587 1.073-2.613 2.491-2.613zm1.174 2.091c-.029-.878-.561-1.332-1.193-1.332-.727 0-1.319.493-1.458 1.332h2.651zm4.301-2.091c1.419 0 2.16 1.045 2.16 2.337l-.031.365h-3.647c.059 1.104.839 1.695 1.727 1.695.866 0 1.487-.562 1.487-.562l.395.701s-.75.69-1.942.69c-1.566 0-2.642-1.135-2.642-2.613-.001-1.587 1.074-2.613 2.493-2.613zm1.173 2.091c-.029-.878-.561-1.332-1.192-1.332-.729 0-1.321.493-1.459 1.332h2.651zm2.418-1.233h-.838v-.739h.858v-1.371h.937v1.371h1.192v.739h-1.192v2.336c0 1.015.69 1.143 1.064 1.143l.225-.01v.799l-.343.02c-.633 0-1.903-.197-1.903-1.863v-2.425zm5.759.286c.148-.177.276-.286.276-.286v-.02l-.403.02h-1.735v.798h-.837v-1.537h4.129v.631l-2.73 3.332c-.147.178-.276.275-.276.275v.02l.394-.009h1.845v-.799h.838v1.538h-4.249v-.631l2.748-3.332z" fill="#fff"/></svg>